<svg width="110" height="110" viewBox="0 0 110 110" fill="none" xmlns="http://www.w3.org/2000/svg">
<rect width="110" height="110" fill="black"/>
<path d="M54.666 70V40.1406H65.125C68.748 40.1406 71.4961 40.8379 73.3691 42.2324C75.2422 43.6133 76.1787 45.6436 76.1787 48.3232C76.1787 49.7861 75.8027 51.0781 75.0508 52.1992C74.2988 53.3066 73.2529 54.1201 71.9131 54.6396C73.4443 55.0225 74.6475 55.7949 75.5225 56.957C76.4111 58.1191 76.8555 59.541 76.8555 61.2227C76.8555 64.0938 75.9395 66.2676 74.1074 67.7441C72.2754 69.2207 69.6641 69.9727 66.2734 70H54.666ZM60.8184 56.998V65.0576H66.0889C67.5381 65.0576 68.666 64.7158 69.4727 64.0322C70.293 63.335 70.7031 62.3779 70.7031 61.1611C70.7031 58.4268 69.2881 57.0391 66.458 56.998H60.8184ZM60.8184 52.6504H65.3711C68.4746 52.5957 70.0264 51.3584 70.0264 48.9385C70.0264 47.585 69.6299 46.6143 68.8369 46.0264C68.0576 45.4248 66.8203 45.124 65.125 45.124H60.8184V52.6504Z" fill="#FFC042"/>
<path d="M52.291 66.2266C51.1836 67.5527 49.6182 68.585 47.5947 69.3232C45.5713 70.0479 43.3291 70.4102 40.8682 70.4102C38.2842 70.4102 36.0146 69.8496 34.0596 68.7285C32.1182 67.5938 30.6143 65.9531 29.5479 63.8066C28.4951 61.6602 27.9551 59.1377 27.9277 56.2393V54.209C27.9277 51.2285 28.4268 48.6514 29.4248 46.4775C30.4365 44.29 31.8857 42.6221 33.7725 41.4736C35.6729 40.3115 37.8945 39.7305 40.4375 39.7305C43.9785 39.7305 46.7471 40.5781 48.7432 42.2734C50.7393 43.9551 51.9219 46.4092 52.291 49.6357H46.3027C46.0293 47.9268 45.4209 46.6758 44.4775 45.8828C43.5479 45.0898 42.2627 44.6934 40.6221 44.6934C38.5303 44.6934 36.9375 45.4795 35.8438 47.0518C34.75 48.624 34.1963 50.9619 34.1826 54.0654V55.9727C34.1826 59.1035 34.7773 61.4688 35.9668 63.0684C37.1562 64.668 38.8994 65.4678 41.1963 65.4678C43.5068 65.4678 45.1543 64.9756 46.1387 63.9912V58.8438H40.54V54.3115H52.291V66.2266Z" fill="#EAE7E1"/>
<line y1="9.125" x2="110" y2="9.125" stroke="white" stroke-opacity="0.1"/>
<line y1="19.2083" x2="110" y2="19.2083" stroke="white" stroke-opacity="0.1"/>
<line y1="29.2917" x2="110" y2="29.2917" stroke="white" stroke-opacity="0.1"/>
<line y1="39.375" x2="110" y2="39.375" stroke="white" stroke-opacity="0.1"/>
<line y1="49.4583" x2="110" y2="49.4583" stroke="white" stroke-opacity="0.1"/>
<line y1="59.5417" x2="110" y2="59.5417" stroke="white" stroke-opacity="0.1"/>
<line y1="69.625" x2="110" y2="69.625" stroke="white" stroke-opacity="0.1"/>
<line y1="79.7083" x2="110" y2="79.7083" stroke="white" stroke-opacity="0.1"/>
<line y1="89.7917" x2="110" y2="89.7917" stroke="white" stroke-opacity="0.1"/>
<line y1="99.875" x2="110" y2="99.875" stroke="white" stroke-opacity="0.1"/>
<line x1="9.125" y1="110" x2="9.12499" y2="2.00344e-08" stroke="white" stroke-opacity="0.1"/>
<line x1="19.2083" y1="110" x2="19.2083" y2="2.00344e-08" stroke="white" stroke-opacity="0.1"/>
<line x1="29.2917" y1="110" x2="29.2917" y2="2.00344e-08" stroke="white" stroke-opacity="0.1"/>
<line x1="39.375" y1="110" x2="39.375" y2="2.00344e-08" stroke="white" stroke-opacity="0.1"/>
<line x1="49.4583" y1="110" x2="49.4583" y2="2.00344e-08" stroke="white" stroke-opacity="0.1"/>
<line x1="59.5417" y1="110" x2="59.5417" y2="2.00344e-08" stroke="white" stroke-opacity="0.1"/>
<line x1="69.625" y1="110" x2="69.625" y2="2.00344e-08" stroke="white" stroke-opacity="0.1"/>
<line x1="79.7083" y1="110" x2="79.7083" y2="2.00344e-08" stroke="white" stroke-opacity="0.1"/>
<line x1="89.7917" y1="110" x2="89.7917" y2="2.00344e-08" stroke="white" stroke-opacity="0.1"/>
<line x1="99.875" y1="110" x2="99.875" y2="2.00344e-08" stroke="white" stroke-opacity="0.1"/>
<circle cx="55" cy="55.4583" r="32.5" stroke="black" stroke-opacity="0.1"/>
</svg>
